# xmcd CD database file generated by libcdaudio 0.99.4
# 
# Track frame offsets:
#       150
#       20835
#       23597
#       46747
#       61717
#       93429
#       109900
#       148822
#       173350
# 
# Disc length: 2434 seconds
# 
# Revision: 0
# Processed by: cddbd v1.4b41PL1 Copyright (c) Steve Scherf et al.
# Submitted via: libcdaudio 0.99.4
# 
DISCID=6a098009
DTITLE=B. B. King - The Best of B. B. King
DYEAR=1900
DGENRE=
TTITLE0=Hummingbird
TTITLE1=Cook County Jail Introduction
TTITLE2=How Blue Can You Get
TTITLE3=Caldonia
TTITLE4=Sweet Sixteen
TTITLE5=Ain't Nobody Home
TTITLE6=Why I Sing The Blues
TTITLE7=The Thrill Is Gone
TTITLE8=Nobody Loves Me But My Mother
EXTD=
EXTT0=
EXTT1=
EXTT2=
EXTT3=
EXTT4=
EXTT5=
EXTT6=
EXTT7=
EXTT8=
PLAYORDER=
